<?xml version="1.0" encoding="UTF-8" standalone="no"?>
<!-- Created with Inkscape (http://www.inkscape.org/) -->

<svg
   width="67.73333mm"
   height="67.73333mm"
   viewBox="0 0 67.73333 67.73333"
   version="1.1"
   id="svg1"
   xml:space="preserve"
   inkscape:export-filename="other_icon.svg"
   inkscape:export-xdpi="96"
   inkscape:export-ydpi="96"
   xmlns:inkscape="http://www.inkscape.org/namespaces/inkscape"
   xmlns:sodipodi="http://sodipodi.sourceforge.net/DTD/sodipodi-0.dtd"
   xmlns="http://www.w3.org/2000/svg"
   xmlns:svg="http://www.w3.org/2000/svg"><sodipodi:namedview
     id="namedview1"
     pagecolor="#ffffff"
     bordercolor="#000000"
     borderopacity="0.25"
     inkscape:showpageshadow="2"
     inkscape:pageopacity="0.0"
     inkscape:pagecheckerboard="0"
     inkscape:deskcolor="#d1d1d1"
     inkscape:document-units="mm"><inkscape:page
       x="0"
       y="0"
       width="67.73333"
       height="67.73333"
       id="page2"
       margin="0"
       bleed="0" /></sodipodi:namedview><defs
     id="defs1" /><g
     inkscape:label="Layer 1"
     inkscape:groupmode="layer"
     id="layer1"
     transform="translate(-194.33093,-19.942539)"><rect
       style="fill:#f4b6af;fill-opacity:1;stroke:none;stroke-width:0.184306;stroke-linecap:round;stroke-linejoin:round;stroke-miterlimit:10;paint-order:markers stroke fill"
       id="rect5-2-9"
       width="67.73333"
       height="67.73333"
       x="194.33093"
       y="19.942539" /><path
       style="fill:#e64c3b;stroke-width:0.484818"
       d="m 220.08077,80.158601 c -1.03475,-0.07225 -2.65101,-0.212292 -3.5917,-0.311259 -0.94068,-0.09896 -2.2106,-0.219533 -2.82205,-0.267933 -0.61144,-0.04842 -1.65046,-0.200717 -2.30894,-0.338475 -0.65848,-0.137758 -1.43617,-0.277942 -1.72822,-0.311525 -0.29203,-0.03358 -0.69104,-0.146733 -0.88668,-0.251433 -0.19563,-0.104709 -0.47945,-0.190376 -0.63071,-0.190376 -0.15126,0 -0.36797,-0.07783 -0.48158,-0.172891 -0.11362,-0.09509 -0.42017,-0.333092 -0.68123,-0.5289 -0.86574,-0.64935 -1.32695,-2.427442 -1.0031,-3.867292 0.10125,-0.450151 0.22519,-1.110726 0.27542,-1.467934 0.14587,-1.037342 0.79105,-2.883517 1.26729,-3.626359 0.85058,-1.326733 1.91761,-3.252584 2.01325,-3.63365 0.0532,-0.2121 0.16541,-0.385634 0.24928,-0.385634 0.0839,0 0.15249,-0.1411 0.15249,-0.313558 0,-0.172458 0.0528,-0.366308 0.11722,-0.430775 0.10911,-0.109117 0.53518,-1.179034 0.62307,-1.564617 0.0214,-0.09407 0.0991,-0.267242 0.17254,-0.384825 0.0735,-0.117583 0.0886,-0.213783 0.0336,-0.213783 -0.055,0 0.0147,-0.221884 0.15498,-0.493067 0.14023,-0.271184 0.29788,-0.752217 0.35034,-1.068959 0.0525,-0.316741 0.168,-0.768308 0.25677,-1.003475 0.29036,-0.769233 0.70908,-2.794459 0.86635,-4.190317 0.0848,-0.75255 0.22824,-1.753092 0.31877,-2.223434 0.0905,-0.470341 0.16983,-2.048125 0.17622,-3.506184 0.007,-1.458058 0.0815,-3.305217 0.167,-4.1048 0.0855,-0.799575 0.20246,-2.146467 0.25996,-2.993084 0.10905,-1.6057 0.43251,-3.350817 0.88288,-4.763309 0.14547,-0.45625 0.29601,-0.995008 0.33453,-1.197233 0.0734,-0.385325 1.26386,-2.870842 1.44583,-3.018701 0.0579,-0.047 0.39137,-0.520683 0.7411,-1.052558 0.95507,-1.452534 4.17497,-3.707184 5.68546,-3.981084 0.22501,-0.04083 0.6599,-0.151675 0.9664,-0.246384 1.02169,-0.3157 3.62311,-0.708466 4.66207,-0.703883 1.38295,0.0058 4.26265,0.414008 5.03127,0.7127 0.24299,0.09443 0.63182,0.207642 0.86407,0.2516 0.23225,0.044 0.50162,0.1429 0.59861,0.219884 0.097,0.077 0.3617,0.196916 0.58825,0.266533 0.65042,0.199858 2.76956,1.559333 3.53137,2.26545 0.8134,0.753934 1.78634,1.979192 1.78634,2.249601 0,0.10405 0.0588,0.189175 0.13066,0.189175 0.11893,0 0.29454,0.343191 1.15275,2.252908 0.15524,0.34545 0.29774,0.730275 0.31664,0.855167 0.0189,0.124892 0.0809,0.304033 0.13775,0.398108 0.0983,0.162692 0.21968,0.681109 0.38041,1.624817 0.0401,0.235167 0.15539,0.773925 0.2563,1.197234 0.19799,0.830508 0.25281,1.527808 0.53116,6.755817 0.28123,5.281868 0.57038,8.616227 0.84543,9.748893 0.142,0.584742 0.36466,2.017651 0.3785,2.435684 0.002,0.07142 0.0678,0.206783 0.14548,0.300842 0.0777,0.09407 0.19684,0.4789 0.26486,0.855167 0.068,0.376275 0.22949,0.893225 0.35881,1.148775 0.12933,0.25555 0.25128,0.659625 0.271,0.897925 0.0198,0.238308 0.096,0.433283 0.16959,0.433283 0.0736,0 0.12131,0.05775 0.10611,0.128275 -0.0152,0.07058 0.0526,0.320692 0.1507,0.555859 0.0981,0.235175 0.299,0.716208 0.44648,1.068958 0.14748,0.352759 0.22835,0.641375 0.17972,0.641375 -0.0487,0 0.0708,0.223542 0.26527,0.49675 0.19454,0.2732 0.35371,0.61955 0.35371,0.76965 0,0.150092 0.077,0.2729 0.17104,0.2729 0.0941,0 0.17103,0.11395 0.17103,0.253226 0,0.219633 0.39043,0.90475 1.51261,2.654342 0.29364,0.457816 0.80712,1.759375 1.07959,2.736533 0.20497,0.735059 0.35076,4.252093 0.18711,4.513701 -0.0653,0.104342 -0.13475,0.295992 -0.1544,0.425892 -0.073,0.482483 -1.13229,1.35175 -1.98151,1.626017 -0.47935,0.154816 -1.4167,0.361266 -2.08298,0.458783 -0.66629,0.09752 -1.40385,0.244933 -1.63902,0.327592 -0.23517,0.08267 -0.88937,0.186891 -1.45378,0.231641 -0.56441,0.04475 -1.56496,0.161342 -2.22343,0.259117 -0.65849,0.09777 -2.3902,0.232233 -3.84825,0.298817 -3.6913,0.168558 -14.747,0.187208 -17.01781,0.02867 z m 17.27436,-2.098934 c 1.93399,-0.134467 6.76046,-0.678475 8.29512,-0.934975 2.83802,-0.474325 3.0106,-0.65585 2.84044,-2.987434 -0.10425,-1.4284 -0.19643,-2.1695 -0.28324,-2.277192 -0.0473,-0.05875 -0.0828,-0.198758 -0.23779,-0.940683 -0.0738,-0.352759 -0.19648,-0.641375 -0.27278,-0.641375 -0.0763,0 -0.22553,-0.250134 -0.3316,-0.555859 -0.17953,-0.517425 -1.74011,-1.995183 -1.97228,-1.867608 -0.0566,0.03108 -0.29121,-0.06692 -0.52142,-0.217725 -0.23021,-0.150842 -0.41857,-0.224584 -0.41857,-0.163859 0,0.06075 -0.0962,0.03292 -0.21379,-0.06183 -0.11758,-0.09472 -0.48317,-0.234492 -0.8124,-0.310592 -0.84583,-0.195516 -0.85053,-0.196741 -0.89793,-0.234533 -0.0235,-0.01875 -0.20869,-0.06525 -0.41149,-0.103358 -0.2028,-0.03808 -0.96303,-0.263284 -1.6894,-0.500392 -0.72637,-0.237117 -1.45552,-0.431117 -1.62032,-0.431117 -0.16479,0 -0.59751,0.363767 -0.9616,0.808359 -0.3641,0.4446 -0.96105,1.078716 -1.32659,1.409158 -0.63586,0.574808 -2.26252,1.71625 -2.44582,1.71625 -0.0482,0 -0.33003,0.106534 -0.62645,0.236742 -1.58391,0.69575 -2.5799,0.863292 -5.15685,0.867475 -2.04687,0.0033 -2.77295,-0.06108 -3.5917,-0.318725 -1.58168,-0.497675 -3.50618,-1.313092 -3.50618,-1.485583 0,-0.08529 -0.0761,-0.155076 -0.16908,-0.155076 -0.32264,0 -2.06829,-1.596041 -2.84792,-2.60385 l -0.36044,-0.465925 -1.10573,0.231342 c -0.60815,0.12725 -1.25283,0.31005 -1.43263,0.406233 -0.17981,0.09618 -0.56856,0.212934 -0.8639,0.259442 -0.52865,0.08325 -1.36226,0.328742 -2.37058,0.6981 -0.50119,0.183592 -0.60484,0.212233 -0.92668,0.256042 -0.37157,0.05058 -1.88773,1.800817 -2.27543,2.6267 -0.42372,0.902625 -0.7255,1.818734 -0.67565,2.050984 0.0146,0.06817 -0.0894,0.624183 -0.23121,1.235616 -0.28856,1.244234 -0.19223,2.340692 0.23857,2.715426 0.43278,0.376467 1.81255,0.745517 3.8704,1.035208 4.23395,0.596034 4.88806,0.662784 7.1834,0.733059 1.31696,0.04033 2.50991,0.105466 2.65101,0.144775 0.32416,0.0903 13.86832,-0.06125 15.47851,-0.173225 z m -6.71902,-9.241276 c 0.23476,-0.04258 0.74582,-0.18995 1.13571,-0.327509 0.38987,-0.137558 0.70886,-0.210683 0.70886,-0.1625 0,0.22295 2.7043,-1.470108 3.0786,-1.9274 0.86321,-1.054592 1.03778,-1.767075 0.43295,-1.767075 -0.14405,0 -0.26191,-0.077 -0.26191,-0.171033 0,-0.09407 -0.0962,-0.171417 -0.21379,-0.171892 -0.11759,-4.67e-4 -0.48317,-0.318467 -0.81241,-0.70665 -0.32924,-0.388184 -0.7401,-0.868834 -0.91302,-1.0681 -0.37934,-0.437125 -0.76581,-1.325909 -0.84988,-1.954492 -0.0648,-0.485042 -0.44291,-0.665392 -0.94087,-0.448842 -0.31885,0.138658 -0.27467,0.125183 -1.49907,0.4572 -0.82298,0.223167 -2.9919,0.257167 -4.3528,0.06825 -0.33142,-0.046 -0.99946,-0.240092 -1.48454,-0.431283 l -0.88194,-0.347634 -0.11503,0.523709 c -0.17072,0.777266 -0.76565,2.056142 -1.17446,2.524642 -0.71562,0.820091 -1.56637,1.5882 -2.02691,1.830017 -0.25869,0.135825 -0.47034,0.357375 -0.47034,0.492316 0,0.274042 1.60327,1.969292 1.86245,1.969292 0.091,0 0.26839,0.09621 0.39413,0.213792 0.5559,0.51985 3.16308,1.423908 4.49923,1.56015 0.7215,0.07358 3.16149,-0.02375 3.88504,-0.154958 z m 14.15899,-3.802626 c -0.08,-0.257058 -0.31211,-0.890675 -0.51583,-1.408058 -0.38889,-0.987642 -0.83642,-2.301834 -0.93187,-2.736534 -0.031,-0.1411 -0.1771,-0.67985 -0.3247,-1.197225 -0.1476,-0.517384 -0.30543,-1.158209 -0.35075,-1.424059 -0.0453,-0.265858 -0.15849,-0.72765 -0.25153,-1.0262 -0.093,-0.298558 -0.20611,-0.966133 -0.25128,-1.483508 -0.13428,-1.537926 -0.52135,-4.104909 -0.61875,-4.103318 -0.0497,8.34e-4 -0.38154,0.277367 -0.7373,0.614559 -0.35578,0.337183 -0.7406,0.6273 -0.85517,0.644692 -0.11458,0.01742 -0.30822,0.09402 -0.4303,0.170258 -0.12209,0.07625 -0.32148,0.100442 -0.44309,0.05375 -0.3352,-0.128625 -0.55179,0.07417 -0.85374,0.799275 -0.39716,0.9538 -1.76716,2.9605 -2.69791,3.951751 -0.78418,0.835141 -0.8009,0.875733 -0.70264,1.705375 0.0553,0.467433 0.20309,1.04615 0.32828,1.28605 0.1252,0.239892 0.2281,0.4862 0.22868,0.547342 4.8e-4,0.06117 0.26708,0.3772 0.59222,0.702342 0.61995,0.61995 1.46123,1.23145 1.46123,1.062125 0,-0.0545 0.21166,0.02233 0.47034,0.17085 0.25869,0.148491 1.08606,0.452958 1.83861,0.676591 0.75255,0.223634 1.59916,0.489551 1.88137,0.590934 1.07307,0.385492 2.53886,0.806567 2.91654,0.837825 0.35313,0.02925 0.37826,-0.01492 0.24759,-0.434833 z m -30.52973,-0.30165 c 0.70044,-0.22865 1.50873,-0.457158 1.79621,-0.507808 0.28748,-0.05067 1.04003,-0.291625 1.67233,-0.535509 0.6323,-0.243883 1.25178,-0.447633 1.37663,-0.452791 0.35,-0.01442 1.8603,-1.442209 2.17469,-2.055834 0.15429,-0.30115 0.31417,-0.778442 0.35527,-1.06065 0.0411,-0.2822 0.1149,-0.695767 0.16399,-0.919025 0.0711,-0.323284 -0.0953,-0.584884 -0.81724,-1.284917 -0.49856,-0.483433 -1.02193,-1.060267 -1.16303,-1.281834 -0.1411,-0.221575 -0.45358,-0.682391 -0.69439,-1.024041 -0.24081,-0.34165 -0.65655,-1.055034 -0.92386,-1.585301 -0.46389,-0.920175 -0.52066,-0.968025 -1.24561,-1.049733 -0.58182,-0.06558 -0.91311,-0.235558 -1.41578,-0.726392 l -0.65622,-0.640783 -0.0943,0.5788 c -0.0518,0.318342 -0.20984,1.502383 -0.35107,2.6312 -0.14123,1.128817 -0.29664,2.225567 -0.34534,2.437226 -0.0487,0.21165 -0.12844,0.557991 -0.17719,0.769641 -0.0487,0.211659 -0.1333,0.654209 -0.18794,0.983442 -0.0547,0.329242 -0.13553,0.657617 -0.17977,0.729717 -0.0443,0.07208 -0.11781,0.337175 -0.16349,0.58905 -0.0457,0.251875 -0.23541,0.924042 -0.42165,1.493717 -0.33212,1.015958 -0.40057,1.196317 -0.84744,2.233 -0.12165,0.282209 -0.25056,0.695567 -0.28647,0.918575 -0.0611,0.379734 -0.0264,0.398192 0.54644,0.290717 0.33645,-0.06308 1.1848,-0.301833 1.88522,-0.530467 z m 15.52154,-5.961076 c 0.5409,-0.127283 0.98344,-0.205208 0.98344,-0.173166 0,0.08984 1.37208,-0.665559 2.15035,-1.183884 1.37441,-0.915325 3.38158,-3.576625 3.60731,-4.782875 0.0313,-0.167759 0.18146,-0.494867 0.33349,-0.726892 0.15203,-0.232034 0.23324,-0.421875 0.18046,-0.421875 -0.0527,0 0.0113,-0.365584 0.14234,-0.812409 0.30689,-1.046158 0.40058,-2.130983 0.44271,-5.126375 0.025,-1.774934 -0.0253,-2.504334 -0.18596,-2.697909 -0.1211,-0.145917 -0.25418,-0.2313 -0.29574,-0.189742 -0.15163,0.151634 -2.04442,-0.870658 -3.21084,-1.734167 -1.28887,-0.95415 -1.62839,-1.292858 -2.358,-2.352408 -0.99987,-1.452009 -0.80786,-1.439426 -2.11644,-0.138675 -0.64454,0.640675 -1.40228,1.2802 -1.68387,1.42115 -0.28159,0.14095 -0.55048,0.303225 -0.5975,0.3606 -0.047,0.05742 -0.62428,0.394875 -1.28276,0.749983 -1.79718,0.969217 -4.16783,1.813084 -6.05594,2.155726 -0.50873,0.09232 -0.9999,0.214166 -1.09149,0.270775 -0.13889,0.08583 -0.0656,3.103858 0.1342,5.52795 0.0652,0.790217 0.29593,1.964567 0.44017,2.239734 0.0787,0.150067 0.1778,0.4646 0.2203,0.698967 0.10127,0.55845 1.1347,2.77455 1.32808,2.847925 0.0827,0.03133 0.15024,0.140684 0.15024,0.24295 0,0.2575 1.84104,2.018176 2.80069,2.678426 0.43505,0.299325 0.79101,0.497125 0.79101,0.43955 0,-0.05758 0.28861,0.05442 0.64137,0.248925 1.13287,0.624558 3.01547,0.814683 4.53238,0.457716 z m -12.84765,-9.402476 c -0.10415,-0.67175 -0.23432,-1.759225 -0.28928,-2.416609 -0.0549,-0.657383 -0.136,-1.231316 -0.18008,-1.275408 -0.0441,-0.04408 -0.28871,0.0475 -0.54359,0.203417 -0.44102,0.269875 -0.4632,0.3483 -0.45861,1.621367 0.005,1.462458 0.25773,2.200191 1.04282,3.047317 0.59351,0.6404 0.67584,0.413791 0.42874,-1.180084 z m 23.62253,-0.02367 c 0.49034,-0.970566 0.72731,-2.189942 0.49868,-2.565917 -0.0572,-0.09407 -0.12113,-0.284375 -0.14204,-0.422891 -0.0509,-0.337234 -0.52162,-0.6656 -0.87951,-0.61355 -0.30453,0.04433 -0.35148,0.329266 -0.6207,3.767542 l -0.1201,1.533858 0.37272,-0.336625 c 0.20499,-0.18515 0.60591,-0.798233 0.89095,-1.362417 z m -23.9872,-6.763417 c 0,-0.959525 -0.0971,-0.904642 2.22343,-1.2567 0.89365,-0.135592 1.91344,-0.3695 2.2662,-0.519809 0.35275,-0.150308 0.64137,-0.231808 0.64137,-0.181091 0,0.05067 0.2268,-0.02508 0.50399,-0.168425 0.2772,-0.143342 0.64279,-0.287917 0.81241,-0.321276 0.47093,-0.09262 1.90558,-0.783075 2.02348,-0.973833 0.0574,-0.09293 0.168,-0.129667 0.24571,-0.08167 0.0777,0.04808 0.18543,-0.02767 0.23937,-0.16825 0.0539,-0.140558 0.18374,-0.255566 0.28844,-0.255566 0.39525,0 2.71894,-2.053984 3.40844,-3.012834 0.14309,-0.199008 0.4728,-0.680034 0.73266,-1.068959 0.81263,-1.216191 1.49855,-0.928383 2.08519,0.874926 0.17596,0.540891 0.3727,0.983441 0.43721,0.983441 0.0645,0 0.25729,0.310484 0.42841,0.689975 0.32386,0.718176 1.5066,1.874542 2.39183,2.338484 0.2822,0.147892 0.55159,0.325 0.59862,0.393567 0.047,0.06858 0.50883,0.31755 1.0262,0.553317 2.56589,1.169258 2.55026,1.158883 2.73232,1.814333 0.0953,0.343242 0.17377,0.758759 0.17429,0.923375 8.3e-4,0.331925 0.0643,0.3465 0.83474,0.192417 0.51584,-0.103167 0.53448,-0.137725 0.53448,-0.990267 0,-0.485858 -0.11544,-1.3266 -0.25654,-1.868333 -0.1411,-0.541726 -0.25755,-1.154376 -0.25876,-1.361442 -0.005,-0.863542 -1.37959,-4.417226 -1.93245,-4.996176 -0.1118,-0.117058 -0.31871,-0.385008 -0.45981,-0.595442 -0.38119,-0.568483 -1.58122,-1.69615 -1.92413,-1.808083 -0.16462,-0.05375 -0.29931,-0.169484 -0.29931,-0.257217 0,-0.08773 -0.10995,-0.159508 -0.24433,-0.159508 -0.13438,0 -0.36527,-0.120942 -0.5131,-0.268767 -0.14782,-0.147825 -0.26877,-0.223225 -0.26877,-0.167558 0,0.05567 -0.28861,-0.04583 -0.64137,-0.225467 -1.46675,-0.747067 -4.93014,-1.410209 -6.66968,-1.27705 -3.10607,0.237766 -5.02568,0.802533 -7.20662,2.120258 -0.88772,0.53635 -3.42085,3.619701 -3.43611,4.182468 -0.002,0.09546 -0.14423,0.4418 -0.31475,0.76965 -0.56779,1.091591 -1.18525,3.764267 -1.34546,5.823684 l -0.10065,1.293842 0.62152,-0.07258 c 0.61875,-0.07225 0.62153,-0.07625 0.62153,-0.897483 z"
       id="path4" /></g></svg>
