<?xml version="1.0" encoding="UTF-8" standalone="no"?>
<!-- Created with Inkscape (http://www.inkscape.org/) -->

<svg
   width="67.73333mm"
   height="67.73333mm"
   viewBox="0 0 67.73333 67.73333"
   version="1.1"
   id="svg1"
   xml:space="preserve"
   xmlns:inkscape="http://www.inkscape.org/namespaces/inkscape"
   xmlns:sodipodi="http://sodipodi.sourceforge.net/DTD/sodipodi-0.dtd"
   xmlns="http://www.w3.org/2000/svg"
   xmlns:svg="http://www.w3.org/2000/svg"><sodipodi:namedview
     id="namedview1"
     pagecolor="#ffffff"
     bordercolor="#000000"
     borderopacity="0.25"
     inkscape:showpageshadow="2"
     inkscape:pageopacity="0.0"
     inkscape:pagecheckerboard="0"
     inkscape:deskcolor="#d1d1d1"
     inkscape:document-units="mm"><inkscape:page
       x="0"
       y="0"
       width="67.73333"
       height="67.73333"
       id="page2"
       margin="0"
       bleed="0" /></sodipodi:namedview><defs
     id="defs1" /><g
     inkscape:label="Layer 1"
     inkscape:groupmode="layer"
     id="layer1"
     transform="translate(-19.832561,-19.942539)"><rect
       style="fill:#7eb4e7;fill-opacity:1;stroke:none;stroke-width:0.184306;stroke-linecap:round;stroke-linejoin:round;stroke-miterlimit:10;paint-order:markers stroke fill"
       id="rect5"
       width="67.73333"
       height="67.73333"
       x="19.832561"
       y="19.942539" /><path
       style="fill:#1f66a6;fill-opacity:1;stroke-width:0.497754"
       d="m 43.387354,80.152062 c -1.207225,-0.08831 -3.2222,-0.318095 -4.477708,-0.510651 -1.255525,-0.192556 -2.559325,-0.384869 -2.89735,-0.427362 -1.204692,-0.151452 -1.858383,-0.332455 -2.927917,-0.810747 -1.4909,-0.666726 -1.731216,-1.135332 -1.706908,-3.328487 0.02283,-2.059159 0.51825,-3.952736 1.516117,-5.794686 1.656766,-3.058202 3.530883,-4.299307 9.132875,-6.048092 1.653,-0.516021 2.173125,-0.764799 2.856366,-1.36621 1.241684,-1.092975 1.726309,-2.629049 0.995525,-3.155439 -1.095691,-0.789241 -3.060875,-4.032264 -3.630216,-5.990728 -0.183109,-0.629865 -0.385817,-0.999193 -0.548409,-0.999193 -0.517133,0 -1.621958,-0.70587 -2.151683,-1.374697 -0.748525,-0.945086 -1.231742,-2.146103 -1.463658,-3.637837 -0.168267,-1.082311 -0.15285,-1.396967 0.1081,-2.20747 0.167383,-0.51988 0.523225,-1.221802 0.790766,-1.559827 0.466575,-0.5895 0.490717,-0.718514 0.59145,-3.160739 0.08372,-2.029648 0.19505,-2.831122 0.5488,-3.950925 1.521834,-4.81727 5.372767,-7.750988 10.9706,-8.357596 4.593109,-0.497734 9.125417,0.581177 10.89725,2.594086 0.391392,0.444649 0.711625,0.872309 0.711625,0.950357 0,0.07805 0.50715,0.383943 1.127,0.679773 2.868575,1.369043 4.373984,4.635983 4.025642,8.736164 -0.1512,1.779695 -0.1431,1.855383 0.2432,2.272207 1.315725,1.41969 1.405642,3.915694 0.231083,6.414474 -0.518758,1.103596 -1.485275,2.06453 -2.488125,2.473735 -0.45805,0.186901 -0.619791,0.431465 -1.03065,1.558412 -0.61835,1.696061 -1.642958,3.440746 -2.858775,4.867877 -0.934375,1.096771 -0.949641,1.132485 -0.808091,1.890176 0.314233,1.682026 1.145316,2.373825 3.953933,3.291295 1.145375,0.374152 2.161517,0.739035 2.258092,0.810852 0.09658,0.07182 0.6102,0.272063 1.141383,0.444997 2.550583,0.830383 4.619375,2.429046 5.742658,4.437658 1.198992,2.143997 1.991492,5.39922 1.733434,7.120105 -0.241934,1.613322 -1.654125,2.646674 -4.315359,3.157703 -4.613908,0.885993 -6.840541,1.031153 -16.681675,1.087539 -5.166933,0.02962 -10.38215,-0.01842 -11.589375,-0.106724 z m 15.891492,-1.916985 c 6.140217,-0.299345 9.319042,-0.628301 12.420667,-1.285341 1.755475,-0.371878 2.0618,-0.62852 2.085491,-1.747272 0.01067,-0.504807 0.005,-1.115377 -0.01217,-1.356823 -0.051,-0.707364 -0.715692,-2.831291 -1.154084,-3.687528 -0.402841,-0.78679 -1.7046,-2.152772 -2.54105,-2.666395 -0.66385,-0.407646 -3.218208,-1.440092 -5.086341,-2.055859 l -1.662575,-0.548002 -1.146975,1.118513 c -2.01095,1.961062 -3.365634,2.652452 -6.259625,3.194736 -2.555492,0.47886 -5.777592,0.07136 -8.144892,-1.030078 -0.810517,-0.377108 -1.523142,-0.914375 -2.45835,-1.853402 -0.890717,-0.894345 -1.43065,-1.307531 -1.668175,-1.276566 -0.800133,0.1043 -4.244433,1.300866 -5.482992,1.904811 -1.234933,0.602178 -3.209033,2.283602 -3.209033,2.733263 0,0.08876 -0.141333,0.371111 -0.314075,0.627464 -0.614858,0.912479 -1.2663,3.686094 -1.2663,5.391464 0,0.726742 0.828967,1.095369 3.336342,1.483627 3.757291,0.5818 4.263741,0.636229 8.077441,0.868128 6.294375,0.382738 9.575392,0.424699 14.486717,0.18526 z M 56.958321,66.701085 c 0.7934,-0.259533 1.758617,-0.669583 2.144933,-0.911223 0.889809,-0.556574 2.019359,-1.60911 2.019359,-1.88168 0,-0.114603 -0.282509,-0.513414 -0.6278,-0.886242 -0.345292,-0.372833 -0.823842,-1.089768 -1.063442,-1.593187 l -0.435642,-0.915305 -0.982433,0.43448 c -2.003975,0.886251 -3.963,1.21014 -5.694542,0.941482 -1.241125,-0.192566 -3.365441,-0.893429 -3.799441,-1.253519 -0.123059,-0.102104 -0.241584,-0.154623 -0.2634,-0.116719 -0.02183,0.03793 -0.26695,0.523872 -0.544759,1.079918 -0.277808,0.556046 -0.771675,1.245047 -1.097475,1.531107 -0.325808,0.286059 -0.592375,0.604925 -0.592375,0.708593 0,0.103667 0.356825,0.569958 0.792942,1.0362 1.407817,1.505069 3.651667,2.268529 6.719942,2.286423 1.695341,0.0099 2.189966,-0.05661 3.424133,-0.460328 z m -1.062433,-7.228978 c 0.646216,-0.179192 1.621433,-0.59404 2.167133,-0.921883 1.043217,-0.626732 2.968,-2.560974 3.407492,-3.424229 0.142291,-0.279501 0.426858,-0.784802 0.632358,-1.122889 0.2055,-0.338087 0.551325,-1.167781 0.7685,-1.843764 0.694142,-2.160651 0.661608,-2.109169 1.469592,-2.325269 1.466116,-0.392131 2.288591,-1.472053 2.544116,-3.340488 0.188292,-1.376873 -0.0058,-2.048617 -0.671933,-2.324507 -0.475517,-0.196966 -0.596775,-0.17403 -1.185842,0.224293 -1.548875,1.047345 -2.080008,0.727776 -2.319575,-1.395628 -0.15425,-1.367156 -0.914833,-3.351106 -1.399566,-3.650689 -0.09543,-0.05898 -0.489142,0.0538 -0.874917,0.250605 -1.215092,0.619893 -2.617117,0.401673 -3.285142,-0.511328 -0.109541,-0.149719 -0.350241,-0.458487 -0.534883,-0.686149 l -0.3357,-0.413933 -0.862358,0.546893 c -1.0579,0.670898 -3.156592,1.488763 -4.552959,1.7743 -1.1317,0.231415 -2.467366,0.140884 -4.066441,-0.275622 -0.775517,-0.201998 -1.049159,-0.212676 -1.246792,-0.04863 -0.446633,0.370672 -0.768733,1.183963 -1.123467,2.836735 -0.240816,1.122019 -0.457533,1.70688 -0.711658,1.920595 -0.473125,0.39789 -0.552917,0.389608 -1.1589,-0.120292 -0.764367,-0.643173 -1.289908,-0.714939 -1.87355,-0.255851 -0.485183,0.381648 -0.494175,0.420713 -0.420417,1.825967 0.117634,2.241377 0.884942,3.307442 2.648934,3.680365 0.5148,0.108834 1.178008,0.984607 1.179175,1.557129 8.33e-4,0.574362 1.028975,2.908673 1.744858,3.96286 0.830017,1.222247 2.667967,2.902515 3.729158,3.409212 2.136467,1.020127 4.263767,1.245939 6.332784,0.672217 z M 65.525979,41.68632 c 0.223884,-0.418318 0.232134,-3.922278 0.01092,-4.628168 -0.608225,-1.940749 -1.68,-3.24594 -3.035,-3.696 -0.658317,-0.218658 -1.00655,-0.472398 -1.398892,-1.019315 -0.78655,-1.096414 -1.634141,-1.64354 -3.483875,-2.248844 -1.548958,-0.506888 -1.870458,-0.549934 -4.222758,-0.565394 -2.278467,-0.01498 -2.724908,0.03405 -4.246417,0.466256 -2.224741,0.631974 -3.348833,1.230254 -4.534825,2.413576 -2.015841,2.011305 -2.978741,4.590239 -2.982408,7.987715 -8.33e-4,1.046105 0.052,1.264126 0.353858,1.452646 0.302984,0.189221 0.369767,0.176075 0.45445,-0.08946 0.535859,-1.680259 1.70065,-3.558485 2.595525,-4.185277 0.49535,-0.346955 1.104367,-0.316293 1.666392,0.0839 1.4958,1.065105 5.214408,0.550153 7.8348,-1.084964 0.482892,-0.301321 1.023392,-0.695114 1.201117,-0.875092 0.224841,-0.227702 0.5186,-0.310942 0.965783,-0.273681 0.587992,0.04898 0.687742,0.140646 1.172817,1.077479 0.291591,0.563155 0.671116,1.1028 0.843391,1.19921 0.369567,0.206821 1.111417,-0.01125 1.86595,-0.548535 0.770384,-0.54856 1.211659,-0.454057 2.041675,0.437251 0.851125,0.913967 1.525359,2.237455 1.849,3.629539 0.186359,0.801564 0.280742,0.953862 0.547867,0.884012 0.177492,-0.04639 0.402783,-0.234004 0.500642,-0.416859 z"
       id="path2" /></g></svg>
