<?xml version="1.0" encoding="UTF-8" standalone="no"?>
<!-- Created with Inkscape (http://www.inkscape.org/) -->

<svg
   width="67.73333mm"
   height="67.73333mm"
   viewBox="0 0 67.73333 67.73333"
   version="1.1"
   id="svg1"
   xml:space="preserve"
   inkscape:export-filename="male_icon.svg"
   inkscape:export-xdpi="96"
   inkscape:export-ydpi="96"
   xmlns:inkscape="http://www.inkscape.org/namespaces/inkscape"
   xmlns:sodipodi="http://sodipodi.sourceforge.net/DTD/sodipodi-0.dtd"
   xmlns="http://www.w3.org/2000/svg"
   xmlns:svg="http://www.w3.org/2000/svg"><sodipodi:namedview
     id="namedview1"
     pagecolor="#ffffff"
     bordercolor="#000000"
     borderopacity="0.25"
     inkscape:showpageshadow="2"
     inkscape:pageopacity="0.0"
     inkscape:pagecheckerboard="0"
     inkscape:deskcolor="#d1d1d1"
     inkscape:document-units="mm"><inkscape:page
       x="0"
       y="0"
       width="67.73333"
       height="67.73333"
       id="page2"
       margin="0"
       bleed="0" /></sodipodi:namedview><defs
     id="defs1" /><g
     inkscape:label="Layer 1"
     inkscape:groupmode="layer"
     id="layer1"
     transform="translate(-107.08174,-19.942539)"><rect
       style="fill:#fadba3;fill-opacity:1;stroke:none;stroke-width:0.184306;stroke-linecap:round;stroke-linejoin:round;stroke-miterlimit:10;paint-order:markers stroke fill"
       id="rect5-2"
       width="67.73333"
       height="67.73333"
       x="107.08174"
       y="19.942539" /><path
       style="fill:#f5a520;stroke-width:0.487375"
       d="m 130.88847,79.956673 c -9.91331,-0.747708 -11.79643,-1.48955 -11.99413,-4.72495 -0.1,-1.63585 0.44091,-4.180134 1.24322,-5.848209 0.87212,-1.813225 2.4156,-3.4209 4.08907,-4.259175 0.70251,-0.351891 1.38369,-0.639808 1.51374,-0.639808 0.13005,0 0.54853,-0.109075 0.92994,-0.242383 0.38142,-0.133317 1.15772,-0.371709 1.7251,-0.529775 2.68063,-0.746767 4.08401,-1.766667 4.6074,-3.348417 l 0.25408,-0.76785 -0.85033,-0.9515 c -1.17064,-1.309925 -1.89265,-2.436425 -2.56481,-4.0017 -0.48419,-1.127534 -0.6542,-1.358142 -1.11285,-1.509509 -1.47595,-0.487108 -2.836,-2.459541 -3.17979,-4.611508 -0.17894,-1.120125 -0.0836,-2.428667 0.2194,-3.011975 0.0913,-0.175825 0.18348,-1.5685 0.20478,-3.094834 0.0432,-3.095308 0.26119,-4.244191 1.24552,-6.563633 1.79274,-4.224316 5.14391,-6.988767 9.87923,-8.149557 1.71247,-0.419786 5.67938,-0.474772 7.31627,-0.101413 4.70705,1.073637 8.05622,3.658725 10.02915,7.741078 1.12999,2.338175 1.39251,3.549084 1.54691,7.1353 0.0712,1.654875 0.22381,3.357034 0.33902,3.782567 0.32811,1.211917 0.11907,2.906875 -0.53297,4.321484 -0.62149,1.34835 -1.46877,2.196966 -2.54968,2.5537 -0.55565,0.183375 -0.72218,0.342841 -0.88234,0.84485 -0.45948,1.440225 -1.86651,3.777908 -3.01136,5.003158 -0.54944,0.588025 -0.55762,0.61945 -0.35814,1.375475 0.31492,1.193484 1.45077,2.232759 3.16117,2.89235 0.76475,0.294925 1.68901,0.60905 2.0539,0.69805 1.09017,0.265917 1.79035,0.533692 3.32841,1.272892 3.28726,1.579858 5.10521,4.606317 5.44431,9.063442 0.20973,2.756683 -0.58955,3.832917 -3.38445,4.55715 -1.56288,0.404983 -5.0732,0.890692 -7.38984,1.0225 -1.08748,0.06192 -2.75096,0.179092 -3.6966,0.260475 -2.93488,0.252592 -13.36364,0.153017 -17.62333,-0.168275 z m 14.35657,-1.716217 c 1.60759,-0.09128 3.73528,-0.20905 4.72821,-0.261716 4.14147,-0.219659 8.4208,-0.838459 9.85513,-1.425067 1.00347,-0.410409 1.14326,-0.837425 0.93974,-2.870625 -0.14031,-1.4016 -0.29047,-1.97355 -0.81255,-3.094825 -1.16391,-2.499767 -2.21851,-3.316642 -5.77917,-4.476409 l -2.38853,-0.777975 -0.30172,0.392034 c -0.16594,0.215625 -0.30343,0.4896 -0.30553,0.608841 -0.002,0.119242 -0.60021,0.841034 -1.32913,1.603984 -1.52185,1.592908 -3.03831,2.567966 -4.98848,3.207525 -1.17327,0.384775 -1.6326,0.4389 -3.74441,0.441233 -2.16272,0.0025 -2.55756,-0.04567 -3.88917,-0.473417 -0.81515,-0.261858 -1.78227,-0.657341 -2.14919,-0.878858 -0.36691,-0.221525 -0.94308,-0.555892 -1.2804,-0.743033 -0.7642,-0.423992 -2.57149,-2.338692 -3.16758,-3.355834 l -0.44721,-0.763108 -1.51798,0.406233 c -2.31784,0.6203 -3.33931,1.0187 -4.37581,1.706684 -1.03479,0.686858 -2.01115,1.991458 -2.54821,3.404875 -0.39646,1.0434 -0.82674,3.226708 -0.82678,4.195233 -6e-5,1.398384 1.10594,1.847167 6.01769,2.441834 1.56031,0.188908 4.57777,0.431425 6.70547,0.538933 2.12769,0.107508 4.10064,0.216567 4.38433,0.24235 1.26324,0.114817 4.5355,0.08359 7.22128,-0.06892 z m -2.22439,-8.874392 c 1.50261,-0.310741 2.58621,-0.731883 3.59987,-1.399091 1.11219,-0.732059 2.64725,-2.30595 2.8509,-2.923025 0.18504,-0.560667 0.16719,-0.592909 -0.92955,-1.6789 -0.63918,-0.632917 -1.20387,-1.36685 -1.3182,-1.713234 -0.10999,-0.333291 -0.27393,-0.605983 -0.3643,-0.605983 -0.0904,0 -0.56743,0.204275 -1.06013,0.453942 -1.45564,0.737633 -2.92329,1.078241 -4.74295,1.100741 -1.87686,0.02317 -3.33634,-0.268966 -4.65698,-0.932283 -0.49326,-0.247758 -0.99555,-0.450467 -1.11619,-0.450467 -0.12063,0 -0.50431,0.461709 -0.85262,1.026017 -0.351,0.56865 -0.97503,1.271425 -1.39992,1.576558 -0.42165,0.3028 -0.76663,0.681375 -0.76663,0.841284 0,0.773391 1.5867,2.432133 3.21519,3.361183 2.56563,1.463683 4.92615,1.884133 7.54151,1.343258 z m -0.90338,-8.849675 c 0.7917,-0.118817 1.76219,-0.436817 2.69793,-0.884033 2.56058,-1.22375 5.03901,-4.148 5.78269,-6.822875 0.31358,-1.1279 0.46459,-1.279692 1.44957,-1.457134 0.82753,-0.149075 1.63145,-1.017483 2.05346,-2.218166 0.83815,-2.384709 -0.0523,-4.021459 -1.5173,-2.788792 -1.15005,0.967708 -1.78356,0.421917 -2.05331,-1.769 -0.5033,-4.087742 -3.13654,-6.544017 -7.77833,-7.2556 -2.1608,-0.331242 -4.18514,-0.138359 -6.18402,0.589216 -2.74838,1.0004 -4.55294,3.2683 -5.10205,6.41205 -0.14482,0.829142 -0.35577,1.700959 -0.46879,1.937367 -0.27094,0.566825 -1.04356,0.66575 -1.54502,0.197834 -0.90969,-0.848859 -1.79123,-0.561884 -1.95181,0.635383 -0.23789,1.7736 1.14612,4.1529 2.4157,4.1529 0.66697,0 0.97789,0.309042 1.29731,1.289508 1.30331,4.000634 4.46198,7.144767 7.92805,7.891592 1.43192,0.308525 1.50377,0.310692 2.97592,0.08975 z M 129.51933,43.109847 c 0.49343,-2.124317 1.92778,-4.433325 3.48378,-5.608108 2.0029,-1.512209 5.11555,-2.450292 7.97652,-2.40395 5.79346,0.09384 10.14421,3.073433 11.31945,7.752083 l 0.27516,1.095425 0.69685,-0.0665 0.69684,-0.0665 -0.0863,-2.086225 c -0.0991,-2.395633 -0.38208,-3.569958 -1.3433,-5.574392 -0.73609,-1.534975 -1.08556,-1.997325 -2.59496,-3.43304 -2.5296,-2.406133 -5.6353,-3.432949 -9.85638,-3.258766 -7.16354,0.295612 -11.99199,5.39154 -12.11731,12.78854 -0.0258,1.526116 -0.0139,1.578866 0.37145,1.636116 0.96629,0.143567 0.96465,0.14465 1.1782,-0.774766 z"
       id="path5"
       sodipodi:nodetypes="sssssssscssssssssssssssssssssssssssssssscsssscsssscsssssssssssssssssssssssssssssssssssssssssssscccsssscss" /></g></svg>
