<?xml version="1.0" encoding="UTF-8" standalone="no"?>
<!-- Created with Inkscape (http://www.inkscape.org/) -->

<svg
   width="67.73333mm"
   height="67.73333mm"
   viewBox="0 0 67.73333 67.73333"
   version="1.1"
   id="svg1"
   xml:space="preserve"
   inkscape:export-filename="female_icon.svg"
   inkscape:export-xdpi="96"
   inkscape:export-ydpi="96"
   xmlns:inkscape="http://www.inkscape.org/namespaces/inkscape"
   xmlns:sodipodi="http://sodipodi.sourceforge.net/DTD/sodipodi-0.dtd"
   xmlns="http://www.w3.org/2000/svg"
   xmlns:svg="http://www.w3.org/2000/svg"><sodipodi:namedview
     id="namedview1"
     pagecolor="#ffffff"
     bordercolor="#000000"
     borderopacity="0.25"
     inkscape:showpageshadow="2"
     inkscape:pageopacity="0.0"
     inkscape:pagecheckerboard="0"
     inkscape:deskcolor="#d1d1d1"
     inkscape:document-units="mm"><inkscape:page
       x="0"
       y="0"
       width="67.73333"
       height="67.73333"
       id="page2"
       margin="0"
       bleed="0" /></sodipodi:namedview><defs
     id="defs1" /><g
     inkscape:label="Layer 1"
     inkscape:groupmode="layer"
     id="layer1"
     transform="translate(-281.58011,-19.942539)"><rect
       style="fill:#afb1b1;fill-opacity:1;stroke:none;stroke-width:0.184306;stroke-linecap:round;stroke-linejoin:round;stroke-miterlimit:10;paint-order:markers stroke fill"
       id="rect5-2-2"
       width="67.73333"
       height="67.73333"
       x="281.58011"
       y="19.942539" /><path
       style="fill:#676969;stroke-width:0.486346"
       d="m 308.40664,80.221482 c -2.92883,-0.267208 -4.79035,-0.426608 -5.5761,-0.477466 -0.519,-0.03358 -1.36596,-0.14545 -1.88213,-0.248559 -0.51615,-0.103116 -1.24963,-0.194575 -1.62993,-0.20325 -0.3803,-0.0087 -1.1547,-0.131141 -1.72089,-0.27215 -0.56619,-0.141008 -1.22245,-0.292075 -1.45836,-0.335708 -0.88822,-0.164275 -1.85546,-0.724667 -2.33483,-1.352758 -0.46295,-0.606567 -0.49611,-0.754142 -0.49611,-2.207934 0,-4.218041 1.21421,-6.993058 3.93311,-8.988916 0.47419,-0.348092 0.90274,-0.638242 0.95232,-0.644775 0.0496,-0.0067 0.55044,-0.221842 1.11301,-0.478442 0.56258,-0.256608 1.14163,-0.490383 1.28679,-0.5195 0.14517,-0.02917 0.49556,-0.149058 0.77866,-0.266525 0.28309,-0.117475 0.69883,-0.248475 0.92387,-0.291133 0.22503,-0.04267 0.63037,-0.191942 0.90075,-0.331767 0.27038,-0.139817 0.4916,-0.217567 0.4916,-0.172783 0,0.04475 0.28953,-0.03492 0.6434,-0.177192 1.95198,-0.784675 2.51633,-1.307592 3.02628,-2.804108 l 0.26035,-0.764025 -0.83972,-0.887884 c -1.14529,-1.210966 -2.3351,-3.094658 -3.00746,-4.761333 -0.4006,-0.993033 -0.67522,-1.436433 -0.96482,-1.557825 -1.09212,-0.457783 -2.40007,-2.021091 -2.63031,-3.143841 -0.0342,-0.166475 -0.14384,-0.650117 -0.24378,-1.074767 -0.56395,-2.3962 0.14757,-4.359625 1.87598,-5.176783 l 0.84459,-0.3993 0.0297,-1.458367 c 0.0447,-2.202375 0.10965,-2.90495 0.32265,-3.494492 0.1068,-0.2956 0.23181,-0.729358 0.2778,-0.9639 0.13505,-0.688775 1.32134,-3.104416 1.99568,-4.063791 0.6409,-0.911817 2.837,-3.144725 3.09288,-3.144725 0.0791,0 0.38953,-0.185425 0.68991,-0.412059 0.63618,-0.479983 1.44147,-0.832808 3.1469,-1.378766 1.51372,-0.484584 4.1792,-0.557584 5.68457,-0.155684 0.53877,0.143842 1.0568,0.280409 1.15116,0.303475 1.17369,0.28695 3.83938,2.104134 5.03759,3.4341 1.56674,1.739009 1.7044,1.929842 2.42095,3.3561 1.03342,2.056959 1.3579,3.385617 1.5253,6.245809 0.10359,1.769975 0.13029,1.873866 0.49585,1.929158 0.60375,0.09132 1.37569,0.888233 1.8741,1.934733 1.18072,2.479142 -0.0242,6.449917 -2.2931,7.55675 -0.70885,0.3458 -0.92984,0.5569 -1.0834,1.034917 -0.32195,1.002217 -0.74311,1.929017 -1.28645,2.830933 -0.64225,1.066084 -1.82614,2.667367 -2.20384,2.980833 -0.15591,0.1294 -0.28348,0.381075 -0.28348,0.559275 0,0.503925 0.68294,1.834675 1.21421,2.365934 0.45125,0.451258 1.78336,1.179875 2.37825,1.300833 0.14735,0.02992 0.49954,0.145392 0.78263,0.256517 0.28309,0.111125 0.64209,0.227866 0.79778,0.259425 0.49184,0.09972 2.09056,0.645158 2.84625,0.971058 0.40003,0.172517 0.76526,0.313667 0.81165,0.313667 0.28839,0 2.11029,1.35085 2.83884,2.104858 0.92786,0.960292 1.95649,2.847175 2.17293,3.98595 0.0359,0.188733 0.14968,0.651975 0.25288,1.029433 0.10322,0.377459 0.20757,1.34255 0.2319,2.14465 0.0379,1.251275 -0.0163,1.58775 -0.38216,2.36955 -0.3732,0.797492 -0.54471,0.9653 -1.37447,1.344842 -1.1486,0.525383 -2.57915,0.918775 -3.73472,1.027033 -0.47183,0.04425 -1.08949,0.156542 -1.37258,0.24965 -0.2831,0.0931 -1.44121,0.208125 -2.57358,0.255617 -1.13238,0.0475 -2.63793,0.1686 -3.34566,0.269158 -1.12004,0.159134 -14.97333,0.325059 -16.38514,0.19625 z m 15.5125,-2.289725 c 0.41652,0.009 1.84486,-0.10825 3.17408,-0.260608 1.32924,-0.152358 2.74904,-0.306558 3.15511,-0.342667 0.40608,-0.03608 1.02374,-0.14025 1.37258,-0.231441 0.34884,-0.09118 0.98169,-0.214292 1.40633,-0.273559 0.42464,-0.05925 0.94579,-0.219933 1.15811,-0.357025 0.21232,-0.137091 0.38604,-0.196916 0.38604,-0.132933 0,0.064 0.16389,-0.03075 0.36422,-0.210508 0.33864,-0.3039 0.35761,-0.447284 0.2703,-2.042559 -0.16485,-3.0117 -1.39139,-5.311058 -3.49005,-6.54265 -0.59062,-0.346608 -5.1967,-2.02395 -6.06623,-2.209066 -0.44893,-0.09558 -1.61452,-0.670584 -2.17946,-1.075159 -0.57378,-0.410916 -2.16703,-2.663808 -2.16703,-3.064233 0,-0.128792 -0.0161,-0.234167 -0.0357,-0.234167 -0.0197,0 -0.63245,0.271917 -1.36173,0.604259 -0.72927,0.332341 -1.6075,0.647083 -1.9516,0.699425 -0.34411,0.05233 -0.93449,0.164583 -1.31195,0.249416 -0.89795,0.201809 -2.23033,0.196275 -3.0883,-0.01283 -0.37745,-0.09199 -0.95419,-0.213425 -1.28163,-0.26985 -0.32744,-0.05642 -1.05113,-0.332667 -1.60821,-0.613875 -0.99599,-0.502775 -1.28539,-0.492233 -1.37781,0.05017 -0.21976,1.289683 -2.54926,3.324258 -4.19947,3.6678 -0.15568,0.03242 -0.86211,0.262608 -1.56984,0.51155 -0.70774,0.248941 -1.364,0.472166 -1.45837,0.49605 -0.58185,0.147283 -2.34189,0.868741 -2.4174,0.990916 -0.0498,0.08067 -0.20102,0.146667 -0.33592,0.146667 -0.58324,0 -2.18492,1.577967 -2.7285,2.6881 -0.94633,1.93265 -1.47294,5.387083 -0.89442,5.8672 0.30341,0.251808 1.59247,0.701475 2.3443,0.817758 0.33027,0.05108 1.03956,0.194075 1.57619,0.317759 0.53663,0.123683 1.00445,0.196116 1.0396,0.160966 0.0352,-0.03517 0.94161,0.05142 2.01435,0.19235 1.07274,0.140942 3.22944,0.2994 4.79266,0.352117 1.56322,0.05275 2.88136,0.137708 2.92919,0.188875 0.0478,0.05117 2.94367,0.0395 6.43516,-0.02583 3.49149,-0.06542 6.68895,-0.111484 7.10547,-0.10245 z m -6.20837,-17.93885 c 1.69047,-0.567466 2.56825,-1.036291 3.63292,-1.940316 1.52763,-1.29715 3.07248,-3.660342 3.71562,-5.6839 0.34727,-1.092633 0.84048,-1.707833 1.36917,-1.707833 0.53343,0 1.22953,-0.600992 1.64943,-1.424059 0.49027,-0.961008 0.62651,-2.95845 0.25128,-3.684066 -0.28158,-0.544517 -0.42111,-0.618309 -1.51936,-0.803517 -0.37167,-0.06267 -0.71432,-0.244583 -0.81497,-0.432633 -0.0955,-0.178459 -0.17518,-1.082334 -0.17705,-2.008592 -0.003,-1.463683 -0.15149,-3.01815 -0.40885,-4.278742 -0.20034,-0.9813 -1.25395,-3.0873 -2.17061,-4.338708 -0.79285,-1.082392 -1.30898,-1.583375 -2.29309,-2.225817 -2.04034,-1.331941 -3.31715,-1.769391 -5.24681,-1.797616 -1.86421,-0.02725 -2.86363,0.108525 -3.59952,0.489075 -0.28303,0.146358 -0.57333,0.265658 -0.64509,0.265108 -0.2454,-0.0017 -2.18853,1.210933 -2.74278,1.711942 -1.23667,1.117841 -2.64188,3.345441 -3.19144,5.059208 -0.4513,1.407333 -0.496,1.775017 -0.53708,4.41765 -0.0448,2.877283 -0.17645,3.217317 -1.24623,3.217317 -0.32185,0 -0.74106,0.08342 -0.93158,0.185375 -0.781,0.417983 -0.96897,1.919258 -0.45506,3.634541 0.22993,0.767409 1.38245,2.1128 1.66194,1.940067 0.0998,-0.06167 0.39735,-4.67e-4 0.66125,0.136 0.35734,0.184783 0.53515,0.460333 0.6965,1.079333 0.11917,0.457167 0.60457,1.617717 1.07868,2.579 0.94264,1.911267 2.56521,3.869417 3.68775,4.450425 0.34166,0.176842 0.89748,0.463717 1.23518,0.637508 0.33769,0.1738 0.75495,0.343134 0.92724,0.376317 0.17228,0.03317 0.40636,0.117883 0.52019,0.188233 0.11383,0.07033 0.94351,0.178659 1.84376,0.240684 0.90024,0.062 1.65447,0.124666 1.67607,0.139183 0.0216,0.0145 0.63925,-0.175008 1.37254,-0.421167 z m -2.99372,-5.389341 c -0.68912,-0.277292 -0.80655,-1.572375 -0.19027,-2.098308 0.80413,-0.68625 2.03226,-0.09488 2.0269,0.976 -0.003,0.62125 -0.12521,0.834641 -0.62948,1.100075 -0.43549,0.229216 -0.68149,0.23375 -1.20715,0.02225 z m -0.30309,-5.25045 c -0.28095,-0.672392 -0.3529,-2.2174 -0.11025,-2.367367 0.0822,-0.05075 0.19353,-0.312925 0.24745,-0.582533 0.0958,-0.4792 1.16655,-1.920258 1.55327,-2.090525 0.10716,-0.04717 0.60506,-0.523133 1.10644,-1.057658 1.12232,-1.196492 1.60508,-2.334584 1.36534,-3.218734 -0.51259,-1.890508 -1.61229,-2.693741 -3.48242,-2.543625 -1.13286,0.09093 -1.6505,0.3639 -2.33126,1.22935 -0.18808,0.239109 -0.37441,0.603209 -0.41407,0.809117 -0.0397,0.205908 -0.23947,0.552542 -0.44404,0.7703 -0.67628,0.719867 -1.84861,0.24115 -1.86239,-0.7605 -0.0108,-0.780842 0.84679,-2.231392 1.80118,-3.046742 0.97517,-0.833125 2.50565,-1.446408 3.60956,-1.446408 1.06235,0 2.72511,0.673817 3.64198,1.475867 1.19024,1.041191 1.61348,1.978841 1.64221,3.638166 0.0405,2.337559 -0.3022,3.04995 -2.49783,5.1925 -0.92555,0.903175 -1.6897,1.71385 -1.6981,1.801509 -0.008,0.08765 -0.0327,0.636058 -0.054,1.218675 -0.047,1.286566 -0.27239,1.600058 -1.15045,1.600058 -0.59978,0 -0.68773,-0.05925 -0.92264,-0.62145 z"
       id="path3"
       sodipodi:nodetypes="sssssssssssssssscscsssssscsssssssscsssssssssssssssssssssssssssscssssssssssssssssssssssssssssssssssccsssssssscssssscssssssssssssssssssscsssssssssssssssssssscss" /></g></svg>
